<mxfile host="app.diagrams.net" modified="2021-09-06T06:18:57.654Z" agent="5.0 (Windows NT 10.0; Win64; x64) AppleWebKit/537.36 (KHTML, like Gecko) Chrome/92.0.4515.159 Safari/537.36" etag="J0Gl0-F_a0V7WEt81Ytd" version="15.0.6" type="github">
  <diagram name="Activity" id="e7e014a7-5840-1c2e-5031-d8a46d1fe8dd">
    <mxGraphModel dx="1038" dy="556" grid="1" gridSize="10" guides="1" tooltips="1" connect="1" arrows="1" fold="1" page="1" pageScale="1" pageWidth="1169" pageHeight="826" background="none" math="0" shadow="0">
      <root>
        <mxCell id="0" />
        <mxCell id="1" parent="0" />
        <mxCell id="2" value="Клиент" style="swimlane;whiteSpace=wrap;startSize=23;" parent="1" vertex="1">
          <mxGeometry x="164.5" y="128" width="280" height="832" as="geometry">
            <mxRectangle x="164.5" y="128" width="80" height="23" as="alternateBounds" />
          </mxGeometry>
        </mxCell>
        <mxCell id="c_RG8bpmXYqNmmWmCUtg-72" style="edgeStyle=orthogonalEdgeStyle;rounded=0;orthogonalLoop=1;jettySize=auto;html=1;exitX=0.5;exitY=1;exitDx=0;exitDy=0;entryX=0.5;entryY=0;entryDx=0;entryDy=0;" edge="1" parent="2" source="c_RG8bpmXYqNmmWmCUtg-64" target="c_RG8bpmXYqNmmWmCUtg-68">
          <mxGeometry relative="1" as="geometry" />
        </mxCell>
        <mxCell id="c_RG8bpmXYqNmmWmCUtg-64" value="" style="ellipse;html=1;shape=startState;fillColor=#000000;strokeColor=#ff0000;" vertex="1" parent="2">
          <mxGeometry x="125" y="62" width="30" height="30" as="geometry" />
        </mxCell>
        <mxCell id="c_RG8bpmXYqNmmWmCUtg-68" value="Выбор товаров" style="rounded=1;whiteSpace=wrap;html=1;arcSize=40;fontColor=#000000;fillColor=#ffffc0;strokeColor=#ff0000;" vertex="1" parent="2">
          <mxGeometry x="80" y="152" width="120" height="40" as="geometry" />
        </mxCell>
        <mxCell id="c_RG8bpmXYqNmmWmCUtg-92" value="Оплата счета" style="rounded=1;whiteSpace=wrap;html=1;arcSize=40;fontColor=#000000;fillColor=#ffffc0;strokeColor=#ff0000;" vertex="1" parent="2">
          <mxGeometry x="80" y="452" width="120" height="40" as="geometry" />
        </mxCell>
        <mxCell id="c_RG8bpmXYqNmmWmCUtg-94" value="" style="rhombus;whiteSpace=wrap;html=1;fillColor=#ffffc0;strokeColor=#ff0000;" vertex="1" parent="2">
          <mxGeometry x="100" y="532" width="80" height="40" as="geometry" />
        </mxCell>
        <mxCell id="c_RG8bpmXYqNmmWmCUtg-96" value="Счет оплачен" style="html=1;verticalAlign=bottom;endArrow=block;exitX=0.5;exitY=1;exitDx=0;exitDy=0;entryX=0.5;entryY=0;entryDx=0;entryDy=0;" edge="1" parent="2" source="c_RG8bpmXYqNmmWmCUtg-92" target="c_RG8bpmXYqNmmWmCUtg-94">
          <mxGeometry width="80" relative="1" as="geometry">
            <mxPoint x="145.5" y="512" as="sourcePoint" />
            <mxPoint x="225.5" y="512" as="targetPoint" />
          </mxGeometry>
        </mxCell>
        <mxCell id="c_RG8bpmXYqNmmWmCUtg-113" style="edgeStyle=orthogonalEdgeStyle;rounded=0;orthogonalLoop=1;jettySize=auto;html=1;exitX=0.5;exitY=1;exitDx=0;exitDy=0;exitPerimeter=0;entryX=0.5;entryY=0;entryDx=0;entryDy=0;dashed=1;endArrow=none;endFill=0;" edge="1" parent="2" source="c_RG8bpmXYqNmmWmCUtg-112" target="c_RG8bpmXYqNmmWmCUtg-92">
          <mxGeometry relative="1" as="geometry" />
        </mxCell>
        <mxCell id="c_RG8bpmXYqNmmWmCUtg-112" value="В течение 10 дней" style="shape=note2;boundedLbl=1;whiteSpace=wrap;html=1;size=25;verticalAlign=top;align=center;" vertex="1" parent="2">
          <mxGeometry x="80" y="342" width="120" height="60" as="geometry" />
        </mxCell>
        <mxCell id="3" value="Менеджер" style="swimlane;whiteSpace=wrap;startSize=23;" parent="1" vertex="1">
          <mxGeometry x="444.5" y="128" width="280" height="832" as="geometry">
            <mxRectangle x="444.5" y="128" width="80" height="23" as="alternateBounds" />
          </mxGeometry>
        </mxCell>
        <mxCell id="c_RG8bpmXYqNmmWmCUtg-70" value="Определение наличия товаров" style="rounded=1;whiteSpace=wrap;html=1;arcSize=40;fontColor=#000000;fillColor=#ffffc0;strokeColor=#ff0000;" vertex="1" parent="3">
          <mxGeometry x="80.5" y="152" width="120" height="40" as="geometry" />
        </mxCell>
        <mxCell id="c_RG8bpmXYqNmmWmCUtg-73" value="" style="rhombus;whiteSpace=wrap;html=1;fillColor=#ffffc0;strokeColor=#ff0000;" vertex="1" parent="3">
          <mxGeometry x="100" y="265" width="80" height="40" as="geometry" />
        </mxCell>
        <mxCell id="c_RG8bpmXYqNmmWmCUtg-86" value="Поставка возможна" style="html=1;verticalAlign=bottom;endArrow=block;entryX=0.5;entryY=0;entryDx=0;entryDy=0;" edge="1" parent="3" target="c_RG8bpmXYqNmmWmCUtg-73">
          <mxGeometry width="80" relative="1" as="geometry">
            <mxPoint x="140.5" y="192" as="sourcePoint" />
            <mxPoint x="140.5" y="262" as="targetPoint" />
          </mxGeometry>
        </mxCell>
        <mxCell id="c_RG8bpmXYqNmmWmCUtg-87" value="Да" style="html=1;verticalAlign=bottom;endArrow=block;entryX=0.5;entryY=0;entryDx=0;entryDy=0;" edge="1" parent="3" target="c_RG8bpmXYqNmmWmCUtg-88">
          <mxGeometry width="80" relative="1" as="geometry">
            <mxPoint x="140.5" y="305" as="sourcePoint" />
            <mxPoint x="140.5" y="375" as="targetPoint" />
          </mxGeometry>
        </mxCell>
        <mxCell id="c_RG8bpmXYqNmmWmCUtg-88" value="Создание заказа" style="rounded=1;whiteSpace=wrap;html=1;arcSize=40;fontColor=#000000;fillColor=#ffffc0;strokeColor=#ff0000;" vertex="1" parent="3">
          <mxGeometry x="80.5" y="382" width="120" height="40" as="geometry" />
        </mxCell>
        <mxCell id="c_RG8bpmXYqNmmWmCUtg-104" value="" style="ellipse;html=1;shape=endState;fillColor=#000000;strokeColor=#ff0000;" vertex="1" parent="3">
          <mxGeometry x="125.5" y="782" width="30" height="30" as="geometry" />
        </mxCell>
        <mxCell id="c_RG8bpmXYqNmmWmCUtg-108" style="edgeStyle=orthogonalEdgeStyle;rounded=0;orthogonalLoop=1;jettySize=auto;html=1;exitX=0.5;exitY=1;exitDx=0;exitDy=0;entryX=0.5;entryY=0;entryDx=0;entryDy=0;" edge="1" parent="3" source="c_RG8bpmXYqNmmWmCUtg-106" target="c_RG8bpmXYqNmmWmCUtg-104">
          <mxGeometry relative="1" as="geometry" />
        </mxCell>
        <mxCell id="c_RG8bpmXYqNmmWmCUtg-106" value="Отмена заказа" style="rounded=1;whiteSpace=wrap;html=1;arcSize=40;fontColor=#000000;fillColor=#ffffc0;strokeColor=#ff0000;" vertex="1" parent="3">
          <mxGeometry x="80" y="698" width="120" height="40" as="geometry" />
        </mxCell>
        <mxCell id="c_RG8bpmXYqNmmWmCUtg-111" value="Нет" style="html=1;verticalAlign=bottom;endArrow=block;entryX=0;entryY=0.5;entryDx=0;entryDy=0;exitX=0;exitY=0.5;exitDx=0;exitDy=0;" edge="1" parent="3" source="c_RG8bpmXYqNmmWmCUtg-73" target="c_RG8bpmXYqNmmWmCUtg-104">
          <mxGeometry width="80" relative="1" as="geometry">
            <mxPoint x="-174.5" y="672" as="sourcePoint" />
            <mxPoint x="-94.5" y="672" as="targetPoint" />
            <Array as="points">
              <mxPoint x="-244.5" y="285" />
              <mxPoint x="-244.5" y="552" />
              <mxPoint x="-244.5" y="797" />
            </Array>
          </mxGeometry>
        </mxCell>
        <mxCell id="4" value="Бухгалтер" style="swimlane;whiteSpace=wrap" parent="1" vertex="1">
          <mxGeometry x="724.5" y="128" width="280" height="832" as="geometry">
            <mxRectangle x="724.5" y="128" width="80" height="23" as="alternateBounds" />
          </mxGeometry>
        </mxCell>
        <mxCell id="c_RG8bpmXYqNmmWmCUtg-89" value="Оформление счета" style="rounded=1;whiteSpace=wrap;html=1;arcSize=40;fontColor=#000000;fillColor=#ffffc0;strokeColor=#ff0000;" vertex="1" parent="4">
          <mxGeometry x="80" y="382" width="120" height="40" as="geometry" />
        </mxCell>
        <mxCell id="c_RG8bpmXYqNmmWmCUtg-97" value="Выписка накладной" style="rounded=1;whiteSpace=wrap;html=1;arcSize=40;fontColor=#000000;fillColor=#ffffc0;strokeColor=#ff0000;" vertex="1" parent="4">
          <mxGeometry x="80" y="532" width="120" height="40" as="geometry" />
        </mxCell>
        <mxCell id="c_RG8bpmXYqNmmWmCUtg-101" value="Возврат денег" style="rounded=1;whiteSpace=wrap;html=1;arcSize=40;fontColor=#000000;fillColor=#ffffc0;strokeColor=#ff0000;" vertex="1" parent="4">
          <mxGeometry x="80" y="602" width="120" height="40" as="geometry" />
        </mxCell>
        <mxCell id="c_RG8bpmXYqNmmWmCUtg-58" value="Кладовщик" style="swimlane;whiteSpace=wrap" vertex="1" parent="1">
          <mxGeometry x="1004.5" y="128" width="280" height="832" as="geometry">
            <mxRectangle x="724.5" y="128" width="80" height="23" as="alternateBounds" />
          </mxGeometry>
        </mxCell>
        <mxCell id="c_RG8bpmXYqNmmWmCUtg-98" value="Сборка" style="rounded=1;whiteSpace=wrap;html=1;arcSize=40;fontColor=#000000;fillColor=#ffffc0;strokeColor=#ff0000;" vertex="1" parent="c_RG8bpmXYqNmmWmCUtg-58">
          <mxGeometry x="80" y="532" width="120" height="40" as="geometry" />
        </mxCell>
        <mxCell id="c_RG8bpmXYqNmmWmCUtg-103" value="Отгрузка" style="rounded=1;whiteSpace=wrap;html=1;arcSize=40;fontColor=#000000;fillColor=#ffffc0;strokeColor=#ff0000;" vertex="1" parent="c_RG8bpmXYqNmmWmCUtg-58">
          <mxGeometry x="80" y="602" width="120" height="40" as="geometry" />
        </mxCell>
        <mxCell id="c_RG8bpmXYqNmmWmCUtg-71" style="edgeStyle=orthogonalEdgeStyle;rounded=0;orthogonalLoop=1;jettySize=auto;html=1;exitX=1;exitY=0.5;exitDx=0;exitDy=0;entryX=0;entryY=0.5;entryDx=0;entryDy=0;" edge="1" parent="1" source="c_RG8bpmXYqNmmWmCUtg-68" target="c_RG8bpmXYqNmmWmCUtg-70">
          <mxGeometry relative="1" as="geometry" />
        </mxCell>
        <mxCell id="c_RG8bpmXYqNmmWmCUtg-90" style="edgeStyle=orthogonalEdgeStyle;rounded=0;orthogonalLoop=1;jettySize=auto;html=1;exitX=1;exitY=0.5;exitDx=0;exitDy=0;entryX=0;entryY=0.5;entryDx=0;entryDy=0;" edge="1" parent="1" source="c_RG8bpmXYqNmmWmCUtg-88" target="c_RG8bpmXYqNmmWmCUtg-89">
          <mxGeometry relative="1" as="geometry" />
        </mxCell>
        <mxCell id="c_RG8bpmXYqNmmWmCUtg-93" style="edgeStyle=orthogonalEdgeStyle;rounded=0;orthogonalLoop=1;jettySize=auto;html=1;exitX=0.5;exitY=1;exitDx=0;exitDy=0;entryX=1;entryY=0.5;entryDx=0;entryDy=0;" edge="1" parent="1" source="c_RG8bpmXYqNmmWmCUtg-89" target="c_RG8bpmXYqNmmWmCUtg-92">
          <mxGeometry relative="1" as="geometry" />
        </mxCell>
        <mxCell id="c_RG8bpmXYqNmmWmCUtg-99" style="edgeStyle=orthogonalEdgeStyle;rounded=0;orthogonalLoop=1;jettySize=auto;html=1;exitX=1;exitY=0.5;exitDx=0;exitDy=0;entryX=0;entryY=0.5;entryDx=0;entryDy=0;" edge="1" parent="1" source="c_RG8bpmXYqNmmWmCUtg-97" target="c_RG8bpmXYqNmmWmCUtg-98">
          <mxGeometry relative="1" as="geometry" />
        </mxCell>
        <mxCell id="c_RG8bpmXYqNmmWmCUtg-100" value="Оплачен в срок" style="html=1;verticalAlign=bottom;endArrow=block;exitX=1;exitY=0.5;exitDx=0;exitDy=0;entryX=0;entryY=0.5;entryDx=0;entryDy=0;" edge="1" parent="1" source="c_RG8bpmXYqNmmWmCUtg-94" target="c_RG8bpmXYqNmmWmCUtg-97">
          <mxGeometry x="-0.0196" y="-10" width="80" relative="1" as="geometry">
            <mxPoint x="500" y="700" as="sourcePoint" />
            <mxPoint x="580" y="700" as="targetPoint" />
            <mxPoint x="1" as="offset" />
          </mxGeometry>
        </mxCell>
        <mxCell id="c_RG8bpmXYqNmmWmCUtg-102" value="Оплачен позже" style="html=1;verticalAlign=bottom;endArrow=block;exitX=0.5;exitY=1;exitDx=0;exitDy=0;entryX=0;entryY=0.5;entryDx=0;entryDy=0;" edge="1" parent="1" source="c_RG8bpmXYqNmmWmCUtg-94" target="c_RG8bpmXYqNmmWmCUtg-101">
          <mxGeometry x="0.1829" y="-10" width="80" relative="1" as="geometry">
            <mxPoint x="560" y="750" as="sourcePoint" />
            <mxPoint x="640" y="750" as="targetPoint" />
            <Array as="points">
              <mxPoint x="305" y="750" />
            </Array>
            <mxPoint as="offset" />
          </mxGeometry>
        </mxCell>
        <mxCell id="c_RG8bpmXYqNmmWmCUtg-105" style="edgeStyle=orthogonalEdgeStyle;rounded=0;orthogonalLoop=1;jettySize=auto;html=1;exitX=0.5;exitY=1;exitDx=0;exitDy=0;entryX=1;entryY=0.5;entryDx=0;entryDy=0;" edge="1" parent="1" source="c_RG8bpmXYqNmmWmCUtg-103" target="c_RG8bpmXYqNmmWmCUtg-104">
          <mxGeometry relative="1" as="geometry" />
        </mxCell>
        <mxCell id="c_RG8bpmXYqNmmWmCUtg-107" style="edgeStyle=orthogonalEdgeStyle;rounded=0;orthogonalLoop=1;jettySize=auto;html=1;exitX=0.5;exitY=1;exitDx=0;exitDy=0;entryX=1;entryY=0.5;entryDx=0;entryDy=0;" edge="1" parent="1" source="c_RG8bpmXYqNmmWmCUtg-101" target="c_RG8bpmXYqNmmWmCUtg-106">
          <mxGeometry relative="1" as="geometry" />
        </mxCell>
        <mxCell id="c_RG8bpmXYqNmmWmCUtg-109" value="Нет" style="html=1;verticalAlign=bottom;endArrow=block;entryX=0;entryY=0.5;entryDx=0;entryDy=0;exitX=0;exitY=0.5;exitDx=0;exitDy=0;" edge="1" parent="1" source="c_RG8bpmXYqNmmWmCUtg-94" target="c_RG8bpmXYqNmmWmCUtg-106">
          <mxGeometry width="80" relative="1" as="geometry">
            <mxPoint x="270" y="900" as="sourcePoint" />
            <mxPoint x="350" y="900" as="targetPoint" />
            <Array as="points">
              <mxPoint x="265" y="846" />
            </Array>
          </mxGeometry>
        </mxCell>
      </root>
    </mxGraphModel>
  </diagram>
</mxfile>
